# xmcd CD database file
#
# Track frame offsets:
#	150
#	13534
#	31039
#	43999
#	57179
#	74626
#	96056
#	113252
#	128044
#
# Disc length: 1863 seconds
#
# Revision: 2
# Processed by: cddbd v1.4b41PL1 Copyright (c) Steve Scherf et al.
# Submitted via: Feurio! 1.50.2ß - http://www.feurio.com
#
DISCID=6d074509
DTITLE=Charm - Unbekannte CD #6D07450949C9C1BC
DYEAR=1900
DGENRE=
TTITLE0=Charm - Stigmatized
TTITLE1=Charm - Summer
TTITLE2=Charm - Nagging p.o.s.
TTITLE3=Charm - war wird sein
TTITLE4=Charm - Hear the voice
TTITLE5=Charm - Niemals
TTITLE6=Charm - Path of the wreck
TTITLE7=Charm - Input
TTITLE8=Charm - Bonus track
EXTD=
EXTT0=
EXTT1=
EXTT2=
EXTT3=
EXTT4=
EXTT5=
EXTT6=
EXTT7=
EXTT8=
PLAYORDER=
